<?xml version="1.0" encoding="UTF-8" standalone="no"?>
<!-- Created with Inkscape (http://www.inkscape.org/) -->

<svg
   xmlns:dc="http://purl.org/dc/elements/1.1/"
   xmlns:cc="http://creativecommons.org/ns#"
   xmlns:rdf="http://www.w3.org/1999/02/22-rdf-syntax-ns#"
   xmlns:svg="http://www.w3.org/2000/svg"
   xmlns="http://www.w3.org/2000/svg"
   xmlns:sodipodi="http://sodipodi.sourceforge.net/DTD/sodipodi-0.dtd"
   xmlns:inkscape="http://www.inkscape.org/namespaces/inkscape"
   width="253.61745mm"
   height="50.898338mm"
   viewBox="0 0 253.61745 50.898338"
   version="1.1"
   id="svg8"
   sodipodi:docname="saturnlogo3.svg"
   inkscape:version="0.92.3 (2405546, 2018-03-11)">
  <defs
     id="defs2" />
  <sodipodi:namedview
     id="base"
     pagecolor="#ffffff"
     bordercolor="#666666"
     borderopacity="1.0"
     inkscape:pageopacity="0.0"
     inkscape:pageshadow="2"
     inkscape:zoom="0.7"
     inkscape:cx="122.28537"
     inkscape:cy="231.03824"
     inkscape:document-units="mm"
     inkscape:current-layer="layer1"
     showgrid="false"
     inkscape:window-width="1920"
     inkscape:window-height="1013"
     inkscape:window-x="-9"
     inkscape:window-y="-9"
     inkscape:window-maximized="1" />
  <metadata
     id="metadata5">
    <rdf:RDF>
      <cc:Work
         rdf:about="">
        <dc:format>image/svg+xml</dc:format>
        <dc:type
           rdf:resource="http://purl.org/dc/dcmitype/StillImage" />
        <dc:title></dc:title>
      </cc:Work>
    </rdf:RDF>
  </metadata>
  <g
     inkscape:label="Layer 1"
     inkscape:groupmode="layer"
     id="layer1"
     transform="translate(29.852196,-179.71149)">
    <path
       style="fill:#000000;stroke-width:0.21166667"
       d="m 161.75907,226.77891 -0.47625,-0.0917 0.002,-0.56736 0.002,-0.56737 0.13009,-0.78691 0.13008,-0.78692 1.22681,0.0461 1.22681,0.0461 0.59869,-0.44237 0.59869,-0.44237 0.3175,-0.61597 0.3175,-0.61596 0.0605,-10.42694 0.0605,-10.42694 -0.48383,-0.18301 -0.48382,-0.18301 -1.11125,-0.15199 -1.11125,-0.152 v -1.25014 -1.25014 l 3.43958,-9e-5 3.43958,-1e-4 -0.10583,12.43551 -0.10583,12.43552 -0.49486,1.00485 -0.49486,1.00485 -0.87173,0.74617 -0.87173,0.74616 -1.05308,0.31274 -1.05308,0.31273 -1.17866,-0.0288 -1.17867,-0.0288 z m -183.567932,-8.01675 -0.529167,-0.0938 -1.27,-0.22784 -1.27,-0.22784 -1.50462,-0.62364 -1.50462,-0.62363 -0.982464,-0.62306 -0.982463,-0.62306 v -3.2929 -3.2929 l 2.164086,0.0603 2.164085,0.0603 0.291846,1.953 0.291846,1.953 1.089485,0.52866 1.089486,0.52866 1.144978,0.24186 1.144979,0.24187 1.721192,-0.0903 1.721191,-0.0903 0.94383,-0.51766 0.94383,-0.51765 0.382139,-0.73969 0.382138,-0.7397 -0.07927,-1.07773 -0.07927,-1.07773 -0.451001,-0.63337 -0.451001,-0.63338 -1.240408,-0.66113 -1.240408,-0.66113 -2.421456,-0.77408 -2.421457,-0.77408 -1.772856,-0.85765 -1.772857,-0.85766 -1.102792,-1.07667 -1.102792,-1.07667 -0.478621,-1.26936 -0.478621,-1.26936 0.08577,-1.69596 0.08577,-1.69595 0.615535,-1.13094 0.615534,-1.13094 0.885942,-0.77984 0.885942,-0.77984 1.201099,-0.58812 1.201098,-0.58812 1.412593,-0.29939 1.412593,-0.29939 1.612691,-0.004 1.61269,-0.004 1.801571,0.31417 1.801571,0.31417 1.030739,0.42802 1.030739,0.42802 0.635,0.34298 0.635,0.34298 0.686471,0.44941 0.6864693,0.44942 0.0017,3.06917 0.0017,3.06916 -2.0597963,-0.0411 -2.059708,-0.0411 -0.400259,-1.91113 -0.400259,-1.91114 -1.191486,-0.46808 -1.191486,-0.46809 -2.116667,-0.0138 -2.116667,-0.0138 -0.846666,0.45565 -0.846667,0.45565 -0.500765,0.53659 -0.500765,0.53658 -0.108451,0.96218 -0.108451,0.96217 0.268823,0.64899 0.268823,0.649 0.936768,0.64451 0.936768,0.64452 1.731958,0.63521 1.731959,0.63521 1.375833,0.42768 1.375834,0.42769 1.672931,0.84081 1.672932,0.84081 1.099099,1.0991 1.0991003,1.0991 0.480261,1.26344 0.480261,1.26344 0.01494,1.37584 0.01494,1.37583 -0.37465,1.11369 -0.374648,1.1137 -1.0531933,1.15236 -1.053193,1.15236 -1.126288,0.55104 -1.126289,0.55104 -1.136447,0.3152 -1.136446,0.3152 -2.54,0.0811 -2.54,0.0811 -0.529167,-0.0938 z m 88.159168,-0.0104 -0.635,-0.0987 -1.1531,-0.32548 -1.1531,-0.32547 -1.17523,-0.59332 -1.17523,-0.59333 -1.12271,-1.1872 -1.1227,-1.18721 -0.51985,-1.13549 -0.51984,-1.13549 -0.203,-1.56382 -0.203,-1.56381 -0.007,-7.24555 -0.007,-7.24555 -0.47625,-0.10305 -0.47625,-0.10305 -0.9525,-0.1717 -0.9525,-0.1717 -0.0615,-1.74011 -0.0615,-1.74012 h 5.83795 5.83795 l -0.0615,1.74012 -0.0615,1.74011 -0.9525,0.1717 -0.9525,0.1717 -0.48544,0.10536 -0.48545,0.10536 0.0621,8.30157 0.0621,8.30158 0.45565,0.84667 0.45566,0.84666 0.49973,0.46615 0.49974,0.46615 0.81923,0.34229 0.81923,0.3423 1.41143,0.11833 1.41144,0.11833 1.20509,-0.35033 1.20509,-0.35033 0.75424,-0.66223 0.75425,-0.66224 0.46378,-0.86671 0.46378,-0.86671 0.0668,-8.01885 0.0668,-8.01886 -0.20999,-0.20998 -0.20998,-0.20999 -1.33849,-0.23892 -1.3385,-0.23892 -0.0615,-1.74515 -0.0615,-1.74516 h 5.82939 5.8294 v 1.69998 1.69997 l -0.26459,0.0867 -0.26458,0.0867 -1.20206,0.23606 -1.20207,0.23606 -0.0797,8.40186 -0.0797,8.40186 -0.34556,1.0309 -0.34555,1.03091 -0.75868,1.14264 -0.75867,1.14265 -1.23833,0.91161 -1.23833,0.9116 -1.77312,0.58607 -1.77313,0.58606 -2.32833,0.0686 -2.32834,0.0686 -0.635,-0.0986 z m -70.3791667,-1.76773 v -1.69738 h 0.700378 0.700377 l 0.355162,-0.26458 0.355164,-0.26459 0.511757,-1.48166 0.51175898,-1.48167 3.53474502,-9.63083 3.534745,-9.63084 0.335857,-1.00541 0.33586,-1.00542 2.870014,0.004 2.8700157,0.004 0.865859,2.3777 0.865861,2.3777 3.579139,9.89338 3.579142,9.89337 0.740833,0.12437 0.740834,0.12437 0.264583,0.0827 0.264583,0.0827 v 1.59415 1.59414 h -4.7625 -4.7625 v -1.66547 -1.66546 l 0.864148,-0.1159 0.864146,-0.11591 0.113348,-0.11335 0.113345,-0.11334 -0.587523,-1.91529 -0.587525,-1.91528 H 9.7053183 4.6678903 l -0.538374,1.70426 -0.538377,1.70426 v 0.30407 0.30407 l 0.84954,0.13585 0.849539,0.13585 0.115466,0.46005 0.115464,0.46005 -0.06542,1.15285 -0.06542,1.15285 -4.70958302,0.057 -4.70958398,0.057 z m 17.2355877,-10.13938 0.11557,-0.187 -1.715954,-4.94591 -1.7159537,-4.94592 -0.08046,-0.0882 -0.08046,-0.0882 -0.113678,0.11368 -0.113677,0.11367 -1.684655,4.91733 -1.684655,4.91733 0.117492,0.19011 0.117489,0.1901 h 3.361684 3.3616837 z m 18.536081,10.15937 v -1.6693 l 1.005417,-0.14506 1.005416,-0.14506 0.47625,-0.11359 0.47625,-0.11359 v -10.03773 -10.03774 l -2.592916,0.0594 -2.592917,0.0594 -0.0413,0.42333 -0.04129,0.42333 -0.132685,1.21709 -0.132685,1.21708 H 27.07091 24.969475 v -3.81 -3.81 l 12.541251,-2.5e-4 12.54125,-2.6e-4 -0.0621,3.81025 -0.0622,3.81026 h -1.99201 -1.99201 l -0.11463,-0.68792 -0.11463,-0.68791 -0.0537,-0.9525 -0.0537,-0.9525 h -2.64583 -2.64584 l -0.0551,9.82977 -0.0551,9.82978 0.16871,0.16871 0.16872,0.16872 1.36801,0.27627 1.36801,0.27628 0.0618,1.63148 0.0618,1.63149 h -5.829741 -5.829736 z m 55.880008,0 v -1.6693 l 1.00541,-0.14506 1.00542,-0.14506 0.47625,-0.11359 0.47625,-0.11359 v -10.00174 -10.00175 l -1.48167,-0.46762 -1.48166,-0.46763 v -1.69406 -1.69407 l 8.09625,0.0816 8.096254,0.0816 1.16416,0.38063 1.16417,0.38062 0.84667,0.42551 0.84666,0.42551 0.86064,0.69757 0.86063,0.69756 0.67063,1.25823 0.67063,1.25823 0.20099,1.41923 0.20099,1.41924 -0.2079,1.30903 -0.20791,1.30903 -0.43,0.89549 -0.42999,0.89548 -0.91158,1.00952 -0.91157,1.00951 -0.865,0.52917 -0.865,0.52916 -0.006,0.25286 -0.006,0.25286 1.72647,3.7688 1.72648,3.76882 0.2939,0.24198 0.29391,0.24198 0.94295,0.1414 0.94295,0.14141 v 1.68574 1.68574 l -3.33375,-0.0583 -3.33375,-0.0583 -1.93725,-5.18136 -1.93726,-5.18136 -0.23816,-0.38136 -0.23816,-0.38135 -2.587084,0.0594 -2.58708,0.0594 -0.0583,3.47649 -0.0583,3.4765 0.172,0.17199 0.17199,0.172 1.32957,0.2691 1.32957,0.2691 0.0384,1.63884 0.0384,1.63884 -5.76792,-1.8e-4 -5.76791,-1.8e-4 z m 15.472994,-14.02791 0.71951,-0.24555 0.52916,-0.40642 0.52917,-0.40642 0.36154,-0.67095 0.36155,-0.67095 0.009,-1.43926 0.009,-1.43927 -0.30669,-0.59306 -0.30669,-0.59307 -0.73891,-0.64877 -0.7389,-0.64877 -1.13858,-0.23637 -1.13857,-0.23636 -2.525414,0.06 -2.52541,0.06 -0.0574,4.18041 -0.0574,4.18042 h 3.14789 3.147894 z m 14.41602,14.06485 0.0618,-1.63236 1.18003,-0.23577 1.18002,-0.23578 0.35456,-0.13606 0.35456,-0.13605 v -9.85579 -9.85579 l -0.35456,-0.13605 -0.35456,-0.13606 -1.18002,-0.23586 -1.18003,-0.23587 -0.0612,-1.84825 -0.0612,-1.84826 4.37529,0.0572 4.3753,0.0572 3.45167,5.50334 3.45167,5.50333 2.37441,3.83782 2.37441,3.83781 0.38556,0.50135 0.38555,0.50135 0.005,-7.75952 0.005,-7.75953 -1.53458,-0.25261 -1.53458,-0.2526 -0.26459,-0.0775 -0.26458,-0.0775 v -1.80581 -1.80581 h 5.82908 5.82907 l -0.0612,1.84674 -0.0611,1.84674 -0.9525,0.15832 -0.9525,0.15832 -0.47449,0.1152 -0.47449,0.11519 -0.0547,11.90266 -0.0547,11.90266 -2.66915,0.059 -2.66916,0.059 -3.39022,-5.13902 -3.39021,-5.13902 -2.93646,-4.445 -2.93647,-4.445 -0.0556,7.59966 -0.0556,7.59965 0.0627,0.0627 0.0627,0.0627 1.68623,0.28066 1.68623,0.28066 0.0618,1.63488 0.0618,1.63487 h -5.83864 -5.83864 z m 35.51599,-0.27264 v -1.905 h 1.79917 1.79916 v 1.905 1.905 h -1.79916 -1.79917 z m 23.28333,0.75042 v -1.15457 l 0.79375,-0.13936 0.79375,-0.13935 0.74084,-0.14428 0.74083,-0.14427 0.0546,-11.96041 0.0546,-11.96042 -1.53631,-0.3068 -1.53631,-0.3068 -0.063,-1.32291 -0.063,-1.32292 h 3.50105 3.50104 l 0.0545,13.5967 0.0545,13.59671 0.42333,0.0667 0.42333,0.0667 1.11125,0.21578 1.11125,0.21579 v 1.14916 1.14916 h -5.08 -5.08 z m -10.58333,-27.10295 v -2.01084 h 1.89048 1.89047 l 0.0674,2.01131 0.0674,2.01131 -1.95791,-4.7e-4 -1.95792,-4.8e-4 z"
       id="path3726"
       inkscape:connector-curvature="0" />
    <g
       id="g51"
       transform="matrix(0.66542322,0,0,0.66542322,89.742301,129.08785)">
      <circle
         id="circle18"
         r="16.5"
         cy="134.56754"
         cx="183.41008"
         style="fill:#d66661;stroke:#c93d39;stroke-width:3" />
      <circle
         id="circle22"
         r="16.5"
         cy="114.32245"
         cx="183.41008"
         style="fill:#aa7dc0;stroke:#945bb0;stroke-width:3" />
      <circle
         id="circle20"
         r="16.5"
         cy="94.077362"
         cx="183.41008"
         style="fill:#6bab5b;stroke:#3b972e;stroke-width:3" />
    </g>
  </g>
</svg>
